<mxfile host="app.diagrams.net" modified="2024-04-02T06:44:17.087Z" agent="Mozilla/5.0 (Windows NT 10.0; Win64; x64; rv:123.0) Gecko/20100101 Firefox/123.0" etag="SV8JAxK3db9pd8hxL7s1" version="24.2.1" type="github">
  <diagram name="Page-1" id="TMIu9oZjWfzS7NxXjIgf">
    <mxGraphModel dx="1062" dy="579" grid="1" gridSize="10" guides="1" tooltips="1" connect="1" arrows="1" fold="1" page="1" pageScale="1" pageWidth="850" pageHeight="1100" math="0" shadow="0">
      <root>
        <mxCell id="0" />
        <mxCell id="1" parent="0" />
        <mxCell id="iEdo7Ytky-OxDYcLE7NU-13" value="ok" style="html=1;verticalAlign=bottom;endArrow=open;dashed=1;endSize=8;curved=0;rounded=0;" parent="1" edge="1">
          <mxGeometry relative="1" as="geometry">
            <mxPoint x="318.0000000000001" y="197" as="targetPoint" />
            <mxPoint x="420" y="197" as="sourcePoint" />
          </mxGeometry>
        </mxCell>
        <mxCell id="iEdo7Ytky-OxDYcLE7NU-12" value="validate(UserImage)" style="html=1;verticalAlign=bottom;endArrow=block;curved=0;rounded=0;entryX=0;entryY=0;entryDx=0;entryDy=5;" parent="1" edge="1">
          <mxGeometry relative="1" as="geometry">
            <mxPoint x="318.0000000000001" y="183.00000000000006" as="sourcePoint" />
            <mxPoint x="420" y="183" as="targetPoint" />
          </mxGeometry>
        </mxCell>
        <mxCell id="iEdo7Ytky-OxDYcLE7NU-1" value="" style="shape=umlLifeline;perimeter=lifelinePerimeter;whiteSpace=wrap;html=1;container=1;dropTarget=0;collapsible=0;recursiveResize=0;outlineConnect=0;portConstraint=eastwest;newEdgeStyle={&quot;curved&quot;:0,&quot;rounded&quot;:0};participant=umlActor;" parent="1" vertex="1">
          <mxGeometry x="30" y="20" width="20" height="280" as="geometry" />
        </mxCell>
        <mxCell id="iEdo7Ytky-OxDYcLE7NU-2" value="" style="html=1;points=[[0,0,0,0,5],[0,1,0,0,-5],[1,0,0,0,5],[1,1,0,0,-5]];perimeter=orthogonalPerimeter;outlineConnect=0;targetShapes=umlLifeline;portConstraint=eastwest;newEdgeStyle={&quot;curved&quot;:0,&quot;rounded&quot;:0};" parent="iEdo7Ytky-OxDYcLE7NU-1" vertex="1">
          <mxGeometry x="5" y="60" width="10" height="200" as="geometry" />
        </mxCell>
        <mxCell id="iEdo7Ytky-OxDYcLE7NU-3" value="View" style="shape=umlLifeline;perimeter=lifelinePerimeter;whiteSpace=wrap;html=1;container=1;dropTarget=0;collapsible=0;recursiveResize=0;outlineConnect=0;portConstraint=eastwest;newEdgeStyle={&quot;curved&quot;:0,&quot;rounded&quot;:0};" parent="1" vertex="1">
          <mxGeometry x="110" y="20" width="100" height="280" as="geometry" />
        </mxCell>
        <mxCell id="iEdo7Ytky-OxDYcLE7NU-7" value="" style="html=1;points=[[0,0,0,0,5],[0,1,0,0,-5],[1,0,0,0,5],[1,1,0,0,-5]];perimeter=orthogonalPerimeter;outlineConnect=0;targetShapes=umlLifeline;portConstraint=eastwest;newEdgeStyle={&quot;curved&quot;:0,&quot;rounded&quot;:0};" parent="iEdo7Ytky-OxDYcLE7NU-3" vertex="1">
          <mxGeometry x="45" y="70" width="10" height="180" as="geometry" />
        </mxCell>
        <mxCell id="qppJl_PG9_t4zhbGuvpg-15" value="" style="html=1;points=[[0,0,0,0,5],[0,1,0,0,-5],[1,0,0,0,5],[1,1,0,0,-5]];perimeter=orthogonalPerimeter;outlineConnect=0;targetShapes=umlLifeline;portConstraint=eastwest;newEdgeStyle={&quot;curved&quot;:0,&quot;rounded&quot;:0};" vertex="1" parent="iEdo7Ytky-OxDYcLE7NU-3">
          <mxGeometry x="50" y="90" width="10" height="20" as="geometry" />
        </mxCell>
        <mxCell id="qppJl_PG9_t4zhbGuvpg-16" value="validate" style="html=1;align=left;spacingLeft=2;endArrow=block;rounded=0;edgeStyle=orthogonalEdgeStyle;curved=0;rounded=0;" edge="1" target="qppJl_PG9_t4zhbGuvpg-15" parent="iEdo7Ytky-OxDYcLE7NU-3">
          <mxGeometry relative="1" as="geometry">
            <mxPoint x="55" y="80" as="sourcePoint" />
            <Array as="points">
              <mxPoint x="80" y="80" />
              <mxPoint x="80" y="95" />
            </Array>
          </mxGeometry>
        </mxCell>
        <mxCell id="iEdo7Ytky-OxDYcLE7NU-4" value="Controller" style="shape=umlLifeline;perimeter=lifelinePerimeter;whiteSpace=wrap;html=1;container=1;dropTarget=0;collapsible=0;recursiveResize=0;outlineConnect=0;portConstraint=eastwest;newEdgeStyle={&quot;curved&quot;:0,&quot;rounded&quot;:0};" parent="1" vertex="1">
          <mxGeometry x="263" y="20" width="100" height="280" as="geometry" />
        </mxCell>
        <mxCell id="iEdo7Ytky-OxDYcLE7NU-9" value="" style="html=1;points=[[0,0,0,0,5],[0,1,0,0,-5],[1,0,0,0,5],[1,1,0,0,-5]];perimeter=orthogonalPerimeter;outlineConnect=0;targetShapes=umlLifeline;portConstraint=eastwest;newEdgeStyle={&quot;curved&quot;:0,&quot;rounded&quot;:0};" parent="iEdo7Ytky-OxDYcLE7NU-4" vertex="1">
          <mxGeometry x="45" y="80" width="10" height="160" as="geometry" />
        </mxCell>
        <mxCell id="qppJl_PG9_t4zhbGuvpg-17" value="validate" style="html=1;align=left;spacingLeft=2;endArrow=block;rounded=0;edgeStyle=orthogonalEdgeStyle;curved=0;rounded=0;" edge="1" target="qppJl_PG9_t4zhbGuvpg-18" parent="iEdo7Ytky-OxDYcLE7NU-4">
          <mxGeometry relative="1" as="geometry">
            <mxPoint x="55" y="118" as="sourcePoint" />
            <Array as="points">
              <mxPoint x="80" y="118" />
              <mxPoint x="80" y="133" />
            </Array>
          </mxGeometry>
        </mxCell>
        <mxCell id="qppJl_PG9_t4zhbGuvpg-18" value="" style="html=1;points=[[0,0,0,0,5],[0,1,0,0,-5],[1,0,0,0,5],[1,1,0,0,-5]];perimeter=orthogonalPerimeter;outlineConnect=0;targetShapes=umlLifeline;portConstraint=eastwest;newEdgeStyle={&quot;curved&quot;:0,&quot;rounded&quot;:0};" vertex="1" parent="iEdo7Ytky-OxDYcLE7NU-4">
          <mxGeometry x="50" y="128" width="10" height="20" as="geometry" />
        </mxCell>
        <mxCell id="iEdo7Ytky-OxDYcLE7NU-6" value="New User" style="html=1;verticalAlign=bottom;endArrow=block;curved=0;rounded=0;" parent="1" target="iEdo7Ytky-OxDYcLE7NU-7" edge="1">
          <mxGeometry width="80" relative="1" as="geometry">
            <mxPoint x="45" y="100.00000000000006" as="sourcePoint" />
            <mxPoint x="150" y="100" as="targetPoint" />
          </mxGeometry>
        </mxCell>
        <mxCell id="iEdo7Ytky-OxDYcLE7NU-10" value="Image&lt;br&gt;Processing" style="shape=umlLifeline;perimeter=lifelinePerimeter;whiteSpace=wrap;html=1;container=1;dropTarget=0;collapsible=0;recursiveResize=0;outlineConnect=0;portConstraint=eastwest;newEdgeStyle={&quot;curved&quot;:0,&quot;rounded&quot;:0};" parent="1" vertex="1">
          <mxGeometry x="375" y="20" width="100" height="280" as="geometry" />
        </mxCell>
        <mxCell id="iEdo7Ytky-OxDYcLE7NU-11" value="" style="html=1;points=[[0,0,0,0,5],[0,1,0,0,-5],[1,0,0,0,5],[1,1,0,0,-5]];perimeter=orthogonalPerimeter;outlineConnect=0;targetShapes=umlLifeline;portConstraint=eastwest;newEdgeStyle={&quot;curved&quot;:0,&quot;rounded&quot;:0};" parent="iEdo7Ytky-OxDYcLE7NU-10" vertex="1">
          <mxGeometry x="45" y="154" width="10" height="25" as="geometry" />
        </mxCell>
        <mxCell id="iEdo7Ytky-OxDYcLE7NU-21" value="save(UserEntity)" style="html=1;verticalAlign=bottom;endArrow=block;curved=0;rounded=0;entryX=0;entryY=0;entryDx=0;entryDy=5;" parent="1" edge="1" source="iEdo7Ytky-OxDYcLE7NU-9">
          <mxGeometry relative="1" as="geometry">
            <mxPoint x="320" y="210" as="sourcePoint" />
            <mxPoint x="545" y="215" as="targetPoint" />
          </mxGeometry>
        </mxCell>
        <mxCell id="iEdo7Ytky-OxDYcLE7NU-22" value="ok" style="html=1;verticalAlign=bottom;endArrow=open;dashed=1;endSize=8;curved=0;rounded=0;exitX=0;exitY=1;exitDx=0;exitDy=-5;" parent="1" source="iEdo7Ytky-OxDYcLE7NU-20" target="iEdo7Ytky-OxDYcLE7NU-9" edge="1">
          <mxGeometry relative="1" as="geometry">
            <mxPoint x="475" y="255" as="targetPoint" />
          </mxGeometry>
        </mxCell>
        <mxCell id="iEdo7Ytky-OxDYcLE7NU-26" value="ok" style="html=1;verticalAlign=bottom;endArrow=open;dashed=1;endSize=8;curved=0;rounded=0;" parent="1" edge="1" source="iEdo7Ytky-OxDYcLE7NU-9">
          <mxGeometry relative="1" as="geometry">
            <mxPoint x="295" y="251" as="sourcePoint" />
            <mxPoint x="165" y="251" as="targetPoint" />
          </mxGeometry>
        </mxCell>
        <mxCell id="iEdo7Ytky-OxDYcLE7NU-27" value="display" style="html=1;verticalAlign=bottom;endArrow=open;dashed=1;endSize=8;curved=0;rounded=0;" parent="1" source="iEdo7Ytky-OxDYcLE7NU-7" edge="1">
          <mxGeometry relative="1" as="geometry">
            <mxPoint x="159.5" y="257" as="sourcePoint" />
            <mxPoint x="45" y="257" as="targetPoint" />
          </mxGeometry>
        </mxCell>
        <mxCell id="4sxgYkIIa8AyiHVq7WXi-2" value="" style="shape=umlLifeline;perimeter=lifelinePerimeter;whiteSpace=wrap;html=1;container=1;dropTarget=0;collapsible=0;recursiveResize=0;outlineConnect=0;portConstraint=eastwest;newEdgeStyle={&quot;curved&quot;:0,&quot;rounded&quot;:0};participant=umlActor;" parent="1" vertex="1">
          <mxGeometry x="30" y="320" width="20" height="250" as="geometry" />
        </mxCell>
        <mxCell id="4sxgYkIIa8AyiHVq7WXi-3" value="" style="html=1;points=[[0,0,0,0,5],[0,1,0,0,-5],[1,0,0,0,5],[1,1,0,0,-5]];perimeter=orthogonalPerimeter;outlineConnect=0;targetShapes=umlLifeline;portConstraint=eastwest;newEdgeStyle={&quot;curved&quot;:0,&quot;rounded&quot;:0};" parent="4sxgYkIIa8AyiHVq7WXi-2" vertex="1">
          <mxGeometry x="5" y="63" width="10" height="147" as="geometry" />
        </mxCell>
        <mxCell id="4sxgYkIIa8AyiHVq7WXi-4" value="View" style="shape=umlLifeline;perimeter=lifelinePerimeter;whiteSpace=wrap;html=1;container=1;dropTarget=0;collapsible=0;recursiveResize=0;outlineConnect=0;portConstraint=eastwest;newEdgeStyle={&quot;curved&quot;:0,&quot;rounded&quot;:0};" parent="1" vertex="1">
          <mxGeometry x="110" y="320" width="100" height="250" as="geometry" />
        </mxCell>
        <mxCell id="4sxgYkIIa8AyiHVq7WXi-5" value="" style="html=1;points=[[0,0,0,0,5],[0,1,0,0,-5],[1,0,0,0,5],[1,1,0,0,-5]];perimeter=orthogonalPerimeter;outlineConnect=0;targetShapes=umlLifeline;portConstraint=eastwest;newEdgeStyle={&quot;curved&quot;:0,&quot;rounded&quot;:0};" parent="4sxgYkIIa8AyiHVq7WXi-4" vertex="1">
          <mxGeometry x="45" y="67" width="10" height="127" as="geometry" />
        </mxCell>
        <mxCell id="4sxgYkIIa8AyiHVq7WXi-6" value="Controller" style="shape=umlLifeline;perimeter=lifelinePerimeter;whiteSpace=wrap;html=1;container=1;dropTarget=0;collapsible=0;recursiveResize=0;outlineConnect=0;portConstraint=eastwest;newEdgeStyle={&quot;curved&quot;:0,&quot;rounded&quot;:0};" parent="1" vertex="1">
          <mxGeometry x="250" y="320" width="100" height="250" as="geometry" />
        </mxCell>
        <mxCell id="4sxgYkIIa8AyiHVq7WXi-7" value="" style="html=1;points=[[0,0,0,0,5],[0,1,0,0,-5],[1,0,0,0,5],[1,1,0,0,-5]];perimeter=orthogonalPerimeter;outlineConnect=0;targetShapes=umlLifeline;portConstraint=eastwest;newEdgeStyle={&quot;curved&quot;:0,&quot;rounded&quot;:0};" parent="4sxgYkIIa8AyiHVq7WXi-6" vertex="1">
          <mxGeometry x="45" y="80" width="10" height="100" as="geometry" />
        </mxCell>
        <mxCell id="4sxgYkIIa8AyiHVq7WXi-8" value="Database" style="shape=umlLifeline;perimeter=lifelinePerimeter;whiteSpace=wrap;html=1;container=1;dropTarget=0;collapsible=0;recursiveResize=0;outlineConnect=0;portConstraint=eastwest;newEdgeStyle={&quot;curved&quot;:0,&quot;rounded&quot;:0};" parent="1" vertex="1">
          <mxGeometry x="370" y="320" width="100" height="250" as="geometry" />
        </mxCell>
        <mxCell id="4sxgYkIIa8AyiHVq7WXi-9" value="" style="html=1;points=[[0,0,0,0,5],[0,1,0,0,-5],[1,0,0,0,5],[1,1,0,0,-5]];perimeter=orthogonalPerimeter;outlineConnect=0;targetShapes=umlLifeline;portConstraint=eastwest;newEdgeStyle={&quot;curved&quot;:0,&quot;rounded&quot;:0};" parent="4sxgYkIIa8AyiHVq7WXi-8" vertex="1">
          <mxGeometry x="45" y="83" width="10" height="93" as="geometry" />
        </mxCell>
        <mxCell id="4sxgYkIIa8AyiHVq7WXi-10" value="View Users" style="html=1;verticalAlign=bottom;endArrow=block;curved=0;rounded=0;" parent="1" edge="1">
          <mxGeometry width="80" relative="1" as="geometry">
            <mxPoint x="45" y="396.5" as="sourcePoint" />
            <mxPoint x="155" y="396.5" as="targetPoint" />
          </mxGeometry>
        </mxCell>
        <mxCell id="4sxgYkIIa8AyiHVq7WXi-11" value="getUsers()" style="html=1;verticalAlign=bottom;endArrow=block;curved=0;rounded=0;" parent="1" edge="1">
          <mxGeometry width="80" relative="1" as="geometry">
            <mxPoint x="165" y="410.5" as="sourcePoint" />
            <mxPoint x="295" y="410.5" as="targetPoint" />
          </mxGeometry>
        </mxCell>
        <mxCell id="4sxgYkIIa8AyiHVq7WXi-12" value="getUsers()" style="html=1;verticalAlign=bottom;endArrow=block;curved=0;rounded=0;" parent="1" edge="1">
          <mxGeometry width="80" relative="1" as="geometry">
            <mxPoint x="305" y="420.0000000000001" as="sourcePoint" />
            <mxPoint x="415" y="420.0000000000001" as="targetPoint" />
          </mxGeometry>
        </mxCell>
        <mxCell id="4sxgYkIIa8AyiHVq7WXi-13" value="List&amp;lt;UserEntity&amp;gt;" style="html=1;verticalAlign=bottom;endArrow=open;dashed=1;endSize=8;curved=0;rounded=0;" parent="1" edge="1">
          <mxGeometry relative="1" as="geometry">
            <mxPoint x="415" y="479.5000000000001" as="sourcePoint" />
            <mxPoint x="305.0000000000001" y="479.5000000000001" as="targetPoint" />
          </mxGeometry>
        </mxCell>
        <mxCell id="4sxgYkIIa8AyiHVq7WXi-14" value="List&amp;lt;UserEntity&amp;gt;" style="html=1;verticalAlign=bottom;endArrow=open;dashed=1;endSize=8;curved=0;rounded=0;" parent="1" edge="1">
          <mxGeometry relative="1" as="geometry">
            <mxPoint x="295" y="487" as="sourcePoint" />
            <mxPoint x="165" y="487" as="targetPoint" />
          </mxGeometry>
        </mxCell>
        <mxCell id="4sxgYkIIa8AyiHVq7WXi-15" value="display" style="html=1;verticalAlign=bottom;endArrow=open;dashed=1;endSize=8;curved=0;rounded=0;" parent="1" edge="1">
          <mxGeometry relative="1" as="geometry">
            <mxPoint x="155" y="500.5" as="sourcePoint" />
            <mxPoint x="45" y="500.5" as="targetPoint" />
          </mxGeometry>
        </mxCell>
        <mxCell id="4sxgYkIIa8AyiHVq7WXi-16" value="" style="shape=umlLifeline;perimeter=lifelinePerimeter;whiteSpace=wrap;html=1;container=1;dropTarget=0;collapsible=0;recursiveResize=0;outlineConnect=0;portConstraint=eastwest;newEdgeStyle={&quot;curved&quot;:0,&quot;rounded&quot;:0};participant=umlActor;" parent="1" vertex="1">
          <mxGeometry x="35" y="590" width="20" height="250" as="geometry" />
        </mxCell>
        <mxCell id="4sxgYkIIa8AyiHVq7WXi-17" value="" style="html=1;points=[[0,0,0,0,5],[0,1,0,0,-5],[1,0,0,0,5],[1,1,0,0,-5]];perimeter=orthogonalPerimeter;outlineConnect=0;targetShapes=umlLifeline;portConstraint=eastwest;newEdgeStyle={&quot;curved&quot;:0,&quot;rounded&quot;:0};" parent="4sxgYkIIa8AyiHVq7WXi-16" vertex="1">
          <mxGeometry x="5" y="63" width="10" height="167" as="geometry" />
        </mxCell>
        <mxCell id="4sxgYkIIa8AyiHVq7WXi-18" value="View" style="shape=umlLifeline;perimeter=lifelinePerimeter;whiteSpace=wrap;html=1;container=1;dropTarget=0;collapsible=0;recursiveResize=0;outlineConnect=0;portConstraint=eastwest;newEdgeStyle={&quot;curved&quot;:0,&quot;rounded&quot;:0};" parent="1" vertex="1">
          <mxGeometry x="115" y="590" width="100" height="250" as="geometry" />
        </mxCell>
        <mxCell id="4sxgYkIIa8AyiHVq7WXi-19" value="" style="html=1;points=[[0,0,0,0,5],[0,1,0,0,-5],[1,0,0,0,5],[1,1,0,0,-5]];perimeter=orthogonalPerimeter;outlineConnect=0;targetShapes=umlLifeline;portConstraint=eastwest;newEdgeStyle={&quot;curved&quot;:0,&quot;rounded&quot;:0};" parent="4sxgYkIIa8AyiHVq7WXi-18" vertex="1">
          <mxGeometry x="45" y="67" width="10" height="153" as="geometry" />
        </mxCell>
        <mxCell id="4sxgYkIIa8AyiHVq7WXi-20" value="Controller" style="shape=umlLifeline;perimeter=lifelinePerimeter;whiteSpace=wrap;html=1;container=1;dropTarget=0;collapsible=0;recursiveResize=0;outlineConnect=0;portConstraint=eastwest;newEdgeStyle={&quot;curved&quot;:0,&quot;rounded&quot;:0};" parent="1" vertex="1">
          <mxGeometry x="255" y="590" width="100" height="250" as="geometry" />
        </mxCell>
        <mxCell id="4sxgYkIIa8AyiHVq7WXi-21" value="" style="html=1;points=[[0,0,0,0,5],[0,1,0,0,-5],[1,0,0,0,5],[1,1,0,0,-5]];perimeter=orthogonalPerimeter;outlineConnect=0;targetShapes=umlLifeline;portConstraint=eastwest;newEdgeStyle={&quot;curved&quot;:0,&quot;rounded&quot;:0};" parent="4sxgYkIIa8AyiHVq7WXi-20" vertex="1">
          <mxGeometry x="45" y="80" width="10" height="130" as="geometry" />
        </mxCell>
        <mxCell id="qppJl_PG9_t4zhbGuvpg-3" value="" style="html=1;points=[[0,0,0,0,5],[0,1,0,0,-5],[1,0,0,0,5],[1,1,0,0,-5]];perimeter=orthogonalPerimeter;outlineConnect=0;targetShapes=umlLifeline;portConstraint=eastwest;newEdgeStyle={&quot;curved&quot;:0,&quot;rounded&quot;:0};" vertex="1" parent="4sxgYkIIa8AyiHVq7WXi-20">
          <mxGeometry x="50" y="119" width="10" height="40" as="geometry" />
        </mxCell>
        <mxCell id="qppJl_PG9_t4zhbGuvpg-4" value="deletePhysically&lt;br&gt;(Image)" style="html=1;align=left;spacingLeft=2;endArrow=block;rounded=0;edgeStyle=orthogonalEdgeStyle;curved=0;rounded=0;" edge="1" target="qppJl_PG9_t4zhbGuvpg-3" parent="4sxgYkIIa8AyiHVq7WXi-20">
          <mxGeometry relative="1" as="geometry">
            <mxPoint x="55" y="103" as="sourcePoint" />
            <Array as="points">
              <mxPoint x="85" y="133" />
            </Array>
          </mxGeometry>
        </mxCell>
        <mxCell id="4sxgYkIIa8AyiHVq7WXi-22" value="Database" style="shape=umlLifeline;perimeter=lifelinePerimeter;whiteSpace=wrap;html=1;container=1;dropTarget=0;collapsible=0;recursiveResize=0;outlineConnect=0;portConstraint=eastwest;newEdgeStyle={&quot;curved&quot;:0,&quot;rounded&quot;:0};" parent="1" vertex="1">
          <mxGeometry x="400" y="590" width="100" height="250" as="geometry" />
        </mxCell>
        <mxCell id="4sxgYkIIa8AyiHVq7WXi-23" value="" style="html=1;points=[[0,0,0,0,5],[0,1,0,0,-5],[1,0,0,0,5],[1,1,0,0,-5]];perimeter=orthogonalPerimeter;outlineConnect=0;targetShapes=umlLifeline;portConstraint=eastwest;newEdgeStyle={&quot;curved&quot;:0,&quot;rounded&quot;:0};" parent="4sxgYkIIa8AyiHVq7WXi-22" vertex="1">
          <mxGeometry x="45" y="83" width="10" height="117" as="geometry" />
        </mxCell>
        <mxCell id="4sxgYkIIa8AyiHVq7WXi-24" value="Delete" style="html=1;verticalAlign=bottom;endArrow=block;curved=0;rounded=0;" parent="1" edge="1">
          <mxGeometry width="80" relative="1" as="geometry">
            <mxPoint x="50" y="666.5" as="sourcePoint" />
            <mxPoint x="160" y="666.5" as="targetPoint" />
          </mxGeometry>
        </mxCell>
        <mxCell id="4sxgYkIIa8AyiHVq7WXi-25" value="deleteUser()" style="html=1;verticalAlign=bottom;endArrow=block;curved=0;rounded=0;" parent="1" edge="1">
          <mxGeometry width="80" relative="1" as="geometry">
            <mxPoint x="170" y="680.5" as="sourcePoint" />
            <mxPoint x="300" y="680.5" as="targetPoint" />
          </mxGeometry>
        </mxCell>
        <mxCell id="4sxgYkIIa8AyiHVq7WXi-26" value="delete(UserEntity)" style="html=1;verticalAlign=bottom;endArrow=block;curved=0;rounded=0;" parent="1" edge="1">
          <mxGeometry width="80" relative="1" as="geometry">
            <mxPoint x="310" y="761.7600000000001" as="sourcePoint" />
            <mxPoint x="445" y="761.7600000000002" as="targetPoint" />
          </mxGeometry>
        </mxCell>
        <mxCell id="4sxgYkIIa8AyiHVq7WXi-27" value="ok" style="html=1;verticalAlign=bottom;endArrow=open;dashed=1;endSize=8;curved=0;rounded=0;" parent="1" edge="1" source="4sxgYkIIa8AyiHVq7WXi-23">
          <mxGeometry relative="1" as="geometry">
            <mxPoint x="420" y="783.5000000000001" as="sourcePoint" />
            <mxPoint x="310.0000000000001" y="783.5000000000001" as="targetPoint" />
          </mxGeometry>
        </mxCell>
        <mxCell id="4sxgYkIIa8AyiHVq7WXi-28" value="ok" style="html=1;verticalAlign=bottom;endArrow=open;dashed=1;endSize=8;curved=0;rounded=0;" parent="1" edge="1">
          <mxGeometry relative="1" as="geometry">
            <mxPoint x="300" y="790" as="sourcePoint" />
            <mxPoint x="170" y="790" as="targetPoint" />
          </mxGeometry>
        </mxCell>
        <mxCell id="4sxgYkIIa8AyiHVq7WXi-29" value="display" style="html=1;verticalAlign=bottom;endArrow=open;dashed=1;endSize=8;curved=0;rounded=0;" parent="1" edge="1">
          <mxGeometry relative="1" as="geometry">
            <mxPoint x="160" y="800.5" as="sourcePoint" />
            <mxPoint x="50" y="800.5" as="targetPoint" />
          </mxGeometry>
        </mxCell>
        <mxCell id="iEdo7Ytky-OxDYcLE7NU-5" value="Database" style="shape=umlLifeline;perimeter=lifelinePerimeter;whiteSpace=wrap;html=1;container=1;dropTarget=0;collapsible=0;recursiveResize=0;outlineConnect=0;portConstraint=eastwest;newEdgeStyle={&quot;curved&quot;:0,&quot;rounded&quot;:0};" parent="1" vertex="1">
          <mxGeometry x="500" y="20" width="100" height="280" as="geometry" />
        </mxCell>
        <mxCell id="iEdo7Ytky-OxDYcLE7NU-20" value="" style="html=1;points=[[0,0,0,0,5],[0,1,0,0,-5],[1,0,0,0,5],[1,1,0,0,-5]];perimeter=orthogonalPerimeter;outlineConnect=0;targetShapes=umlLifeline;portConstraint=eastwest;newEdgeStyle={&quot;curved&quot;:0,&quot;rounded&quot;:0};" parent="iEdo7Ytky-OxDYcLE7NU-5" vertex="1">
          <mxGeometry x="45" y="190" width="10" height="40" as="geometry" />
        </mxCell>
        <mxCell id="iEdo7Ytky-OxDYcLE7NU-8" value="doNewUser(NewUserForm)" style="html=1;verticalAlign=bottom;endArrow=block;curved=0;rounded=0;" parent="1" edge="1">
          <mxGeometry x="-0.0007" width="80" relative="1" as="geometry">
            <mxPoint x="165" y="135" as="sourcePoint" />
            <mxPoint x="308" y="135" as="targetPoint" />
            <mxPoint as="offset" />
          </mxGeometry>
        </mxCell>
        <mxCell id="qppJl_PG9_t4zhbGuvpg-41" value="ok" style="html=1;verticalAlign=bottom;endArrow=open;dashed=1;endSize=8;curved=0;rounded=0;" edge="1" parent="1">
          <mxGeometry relative="1" as="geometry">
            <mxPoint x="318.0000000000001" y="1037" as="targetPoint" />
            <mxPoint x="420" y="1037" as="sourcePoint" />
          </mxGeometry>
        </mxCell>
        <mxCell id="qppJl_PG9_t4zhbGuvpg-42" value="validate(UserImage)" style="html=1;verticalAlign=bottom;endArrow=block;curved=0;rounded=0;entryX=0;entryY=0;entryDx=0;entryDy=5;" edge="1" parent="1">
          <mxGeometry relative="1" as="geometry">
            <mxPoint x="318.0000000000001" y="1023" as="sourcePoint" />
            <mxPoint x="420" y="1023" as="targetPoint" />
          </mxGeometry>
        </mxCell>
        <mxCell id="qppJl_PG9_t4zhbGuvpg-43" value="" style="shape=umlLifeline;perimeter=lifelinePerimeter;whiteSpace=wrap;html=1;container=1;dropTarget=0;collapsible=0;recursiveResize=0;outlineConnect=0;portConstraint=eastwest;newEdgeStyle={&quot;curved&quot;:0,&quot;rounded&quot;:0};participant=umlActor;" vertex="1" parent="1">
          <mxGeometry x="30" y="860" width="20" height="280" as="geometry" />
        </mxCell>
        <mxCell id="qppJl_PG9_t4zhbGuvpg-44" value="" style="html=1;points=[[0,0,0,0,5],[0,1,0,0,-5],[1,0,0,0,5],[1,1,0,0,-5]];perimeter=orthogonalPerimeter;outlineConnect=0;targetShapes=umlLifeline;portConstraint=eastwest;newEdgeStyle={&quot;curved&quot;:0,&quot;rounded&quot;:0};" vertex="1" parent="qppJl_PG9_t4zhbGuvpg-43">
          <mxGeometry x="5" y="60" width="10" height="200" as="geometry" />
        </mxCell>
        <mxCell id="qppJl_PG9_t4zhbGuvpg-45" value="View" style="shape=umlLifeline;perimeter=lifelinePerimeter;whiteSpace=wrap;html=1;container=1;dropTarget=0;collapsible=0;recursiveResize=0;outlineConnect=0;portConstraint=eastwest;newEdgeStyle={&quot;curved&quot;:0,&quot;rounded&quot;:0};" vertex="1" parent="1">
          <mxGeometry x="110" y="860" width="100" height="280" as="geometry" />
        </mxCell>
        <mxCell id="qppJl_PG9_t4zhbGuvpg-46" value="" style="html=1;points=[[0,0,0,0,5],[0,1,0,0,-5],[1,0,0,0,5],[1,1,0,0,-5]];perimeter=orthogonalPerimeter;outlineConnect=0;targetShapes=umlLifeline;portConstraint=eastwest;newEdgeStyle={&quot;curved&quot;:0,&quot;rounded&quot;:0};" vertex="1" parent="qppJl_PG9_t4zhbGuvpg-45">
          <mxGeometry x="45" y="70" width="10" height="180" as="geometry" />
        </mxCell>
        <mxCell id="qppJl_PG9_t4zhbGuvpg-47" value="" style="html=1;points=[[0,0,0,0,5],[0,1,0,0,-5],[1,0,0,0,5],[1,1,0,0,-5]];perimeter=orthogonalPerimeter;outlineConnect=0;targetShapes=umlLifeline;portConstraint=eastwest;newEdgeStyle={&quot;curved&quot;:0,&quot;rounded&quot;:0};" vertex="1" parent="qppJl_PG9_t4zhbGuvpg-45">
          <mxGeometry x="50" y="90" width="10" height="20" as="geometry" />
        </mxCell>
        <mxCell id="qppJl_PG9_t4zhbGuvpg-48" value="validate" style="html=1;align=left;spacingLeft=2;endArrow=block;rounded=0;edgeStyle=orthogonalEdgeStyle;curved=0;rounded=0;" edge="1" parent="qppJl_PG9_t4zhbGuvpg-45" target="qppJl_PG9_t4zhbGuvpg-47">
          <mxGeometry relative="1" as="geometry">
            <mxPoint x="55" y="80" as="sourcePoint" />
            <Array as="points">
              <mxPoint x="80" y="80" />
              <mxPoint x="80" y="95" />
            </Array>
          </mxGeometry>
        </mxCell>
        <mxCell id="qppJl_PG9_t4zhbGuvpg-49" value="Controller" style="shape=umlLifeline;perimeter=lifelinePerimeter;whiteSpace=wrap;html=1;container=1;dropTarget=0;collapsible=0;recursiveResize=0;outlineConnect=0;portConstraint=eastwest;newEdgeStyle={&quot;curved&quot;:0,&quot;rounded&quot;:0};" vertex="1" parent="1">
          <mxGeometry x="263" y="860" width="100" height="280" as="geometry" />
        </mxCell>
        <mxCell id="qppJl_PG9_t4zhbGuvpg-50" value="" style="html=1;points=[[0,0,0,0,5],[0,1,0,0,-5],[1,0,0,0,5],[1,1,0,0,-5]];perimeter=orthogonalPerimeter;outlineConnect=0;targetShapes=umlLifeline;portConstraint=eastwest;newEdgeStyle={&quot;curved&quot;:0,&quot;rounded&quot;:0};" vertex="1" parent="qppJl_PG9_t4zhbGuvpg-49">
          <mxGeometry x="45" y="80" width="10" height="160" as="geometry" />
        </mxCell>
        <mxCell id="qppJl_PG9_t4zhbGuvpg-51" value="validate" style="html=1;align=left;spacingLeft=2;endArrow=block;rounded=0;edgeStyle=orthogonalEdgeStyle;curved=0;rounded=0;" edge="1" parent="qppJl_PG9_t4zhbGuvpg-49" target="qppJl_PG9_t4zhbGuvpg-52">
          <mxGeometry relative="1" as="geometry">
            <mxPoint x="55" y="118" as="sourcePoint" />
            <Array as="points">
              <mxPoint x="80" y="118" />
              <mxPoint x="80" y="133" />
            </Array>
          </mxGeometry>
        </mxCell>
        <mxCell id="qppJl_PG9_t4zhbGuvpg-52" value="" style="html=1;points=[[0,0,0,0,5],[0,1,0,0,-5],[1,0,0,0,5],[1,1,0,0,-5]];perimeter=orthogonalPerimeter;outlineConnect=0;targetShapes=umlLifeline;portConstraint=eastwest;newEdgeStyle={&quot;curved&quot;:0,&quot;rounded&quot;:0};" vertex="1" parent="qppJl_PG9_t4zhbGuvpg-49">
          <mxGeometry x="50" y="128" width="10" height="20" as="geometry" />
        </mxCell>
        <mxCell id="qppJl_PG9_t4zhbGuvpg-53" value="New User" style="html=1;verticalAlign=bottom;endArrow=block;curved=0;rounded=0;" edge="1" target="qppJl_PG9_t4zhbGuvpg-46" parent="1">
          <mxGeometry width="80" relative="1" as="geometry">
            <mxPoint x="45" y="940" as="sourcePoint" />
            <mxPoint x="150" y="940" as="targetPoint" />
          </mxGeometry>
        </mxCell>
        <mxCell id="qppJl_PG9_t4zhbGuvpg-54" value="Image&lt;br&gt;Processing" style="shape=umlLifeline;perimeter=lifelinePerimeter;whiteSpace=wrap;html=1;container=1;dropTarget=0;collapsible=0;recursiveResize=0;outlineConnect=0;portConstraint=eastwest;newEdgeStyle={&quot;curved&quot;:0,&quot;rounded&quot;:0};" vertex="1" parent="1">
          <mxGeometry x="375" y="860" width="100" height="280" as="geometry" />
        </mxCell>
        <mxCell id="qppJl_PG9_t4zhbGuvpg-55" value="" style="html=1;points=[[0,0,0,0,5],[0,1,0,0,-5],[1,0,0,0,5],[1,1,0,0,-5]];perimeter=orthogonalPerimeter;outlineConnect=0;targetShapes=umlLifeline;portConstraint=eastwest;newEdgeStyle={&quot;curved&quot;:0,&quot;rounded&quot;:0};" vertex="1" parent="qppJl_PG9_t4zhbGuvpg-54">
          <mxGeometry x="45" y="154" width="10" height="25" as="geometry" />
        </mxCell>
        <mxCell id="qppJl_PG9_t4zhbGuvpg-56" value="save(UserEntity)" style="html=1;verticalAlign=bottom;endArrow=block;curved=0;rounded=0;entryX=0;entryY=0;entryDx=0;entryDy=5;" edge="1" source="qppJl_PG9_t4zhbGuvpg-50" parent="1">
          <mxGeometry relative="1" as="geometry">
            <mxPoint x="320" y="1050" as="sourcePoint" />
            <mxPoint x="545" y="1055" as="targetPoint" />
          </mxGeometry>
        </mxCell>
        <mxCell id="qppJl_PG9_t4zhbGuvpg-57" value="ok" style="html=1;verticalAlign=bottom;endArrow=open;dashed=1;endSize=8;curved=0;rounded=0;exitX=0;exitY=1;exitDx=0;exitDy=-5;" edge="1" source="qppJl_PG9_t4zhbGuvpg-61" target="qppJl_PG9_t4zhbGuvpg-50" parent="1">
          <mxGeometry relative="1" as="geometry">
            <mxPoint x="475" y="1095" as="targetPoint" />
          </mxGeometry>
        </mxCell>
        <mxCell id="qppJl_PG9_t4zhbGuvpg-58" value="ok" style="html=1;verticalAlign=bottom;endArrow=open;dashed=1;endSize=8;curved=0;rounded=0;" edge="1" source="qppJl_PG9_t4zhbGuvpg-50" parent="1">
          <mxGeometry relative="1" as="geometry">
            <mxPoint x="295" y="1091" as="sourcePoint" />
            <mxPoint x="165" y="1091" as="targetPoint" />
          </mxGeometry>
        </mxCell>
        <mxCell id="qppJl_PG9_t4zhbGuvpg-59" value="display" style="html=1;verticalAlign=bottom;endArrow=open;dashed=1;endSize=8;curved=0;rounded=0;" edge="1" source="qppJl_PG9_t4zhbGuvpg-46" parent="1">
          <mxGeometry relative="1" as="geometry">
            <mxPoint x="159.5" y="1097" as="sourcePoint" />
            <mxPoint x="45" y="1097" as="targetPoint" />
          </mxGeometry>
        </mxCell>
        <mxCell id="qppJl_PG9_t4zhbGuvpg-60" value="Database" style="shape=umlLifeline;perimeter=lifelinePerimeter;whiteSpace=wrap;html=1;container=1;dropTarget=0;collapsible=0;recursiveResize=0;outlineConnect=0;portConstraint=eastwest;newEdgeStyle={&quot;curved&quot;:0,&quot;rounded&quot;:0};" vertex="1" parent="1">
          <mxGeometry x="500" y="860" width="100" height="280" as="geometry" />
        </mxCell>
        <mxCell id="qppJl_PG9_t4zhbGuvpg-61" value="" style="html=1;points=[[0,0,0,0,5],[0,1,0,0,-5],[1,0,0,0,5],[1,1,0,0,-5]];perimeter=orthogonalPerimeter;outlineConnect=0;targetShapes=umlLifeline;portConstraint=eastwest;newEdgeStyle={&quot;curved&quot;:0,&quot;rounded&quot;:0};" vertex="1" parent="qppJl_PG9_t4zhbGuvpg-60">
          <mxGeometry x="45" y="190" width="10" height="40" as="geometry" />
        </mxCell>
        <mxCell id="qppJl_PG9_t4zhbGuvpg-62" value="doEditUser(EditUserForm)" style="html=1;verticalAlign=bottom;endArrow=block;curved=0;rounded=0;" edge="1" parent="1">
          <mxGeometry x="-0.0007" width="80" relative="1" as="geometry">
            <mxPoint x="165" y="975" as="sourcePoint" />
            <mxPoint x="308" y="975" as="targetPoint" />
            <mxPoint as="offset" />
          </mxGeometry>
        </mxCell>
      </root>
    </mxGraphModel>
  </diagram>
</mxfile>
